<mxfile host="app.diagrams.net" modified="2023-08-03T02:34:25.287Z" agent="Mozilla/5.0 (Windows NT 10.0; Win64; x64) AppleWebKit/537.36 (KHTML, like Gecko) Chrome/115.0.0.0 Safari/537.36" etag="T2L8kIW4idK07TYRJXDB" version="21.6.6" type="github">
  <diagram name="Page-1" id="pK57bvepk6PZP74yYJi3">
    <mxGraphModel dx="2600" dy="2057" grid="1" gridSize="10" guides="1" tooltips="1" connect="1" arrows="1" fold="1" page="1" pageScale="1" pageWidth="850" pageHeight="1100" math="0" shadow="0">
      <root>
        <mxCell id="0" />
        <mxCell id="1" parent="0" />
        <mxCell id="gnPVu5nhBKd851bWKXTs-1" value="&lt;span style=&quot;font-size: 22px;&quot;&gt;microcontroller&lt;/span&gt;" style="rounded=1;whiteSpace=wrap;html=1;fillColor=#f8cecc;strokeColor=#b85450;fontFamily=Times New Roman;" parent="1" vertex="1">
          <mxGeometry x="350" y="220" width="220" height="80" as="geometry" />
        </mxCell>
        <mxCell id="gnPVu5nhBKd851bWKXTs-5" style="edgeStyle=orthogonalEdgeStyle;rounded=0;orthogonalLoop=1;jettySize=auto;html=1;entryX=0.053;entryY=-0.002;entryDx=0;entryDy=0;entryPerimeter=0;" parent="1" source="gnPVu5nhBKd851bWKXTs-2" target="gnPVu5nhBKd851bWKXTs-1" edge="1">
          <mxGeometry relative="1" as="geometry" />
        </mxCell>
        <mxCell id="gnPVu5nhBKd851bWKXTs-2" value="&lt;h3&gt;MPU9250&lt;/h3&gt;" style="ellipse;whiteSpace=wrap;html=1;aspect=fixed;" parent="1" vertex="1">
          <mxGeometry x="10" y="80" width="100" height="100" as="geometry" />
        </mxCell>
        <mxCell id="gnPVu5nhBKd851bWKXTs-8" style="edgeStyle=orthogonalEdgeStyle;rounded=0;orthogonalLoop=1;jettySize=auto;html=1;entryX=0;entryY=0.5;entryDx=0;entryDy=0;" parent="1" source="gnPVu5nhBKd851bWKXTs-3" target="gnPVu5nhBKd851bWKXTs-7" edge="1">
          <mxGeometry relative="1" as="geometry" />
        </mxCell>
        <mxCell id="gnPVu5nhBKd851bWKXTs-3" value="&lt;h3&gt;RX-MC7R&lt;/h3&gt;" style="ellipse;whiteSpace=wrap;html=1;aspect=fixed;fillColor=#dae8fc;strokeColor=#6c8ebf;" parent="1" vertex="1">
          <mxGeometry x="10" y="210" width="100" height="100" as="geometry" />
        </mxCell>
        <mxCell id="gnPVu5nhBKd851bWKXTs-10" style="edgeStyle=orthogonalEdgeStyle;rounded=0;orthogonalLoop=1;jettySize=auto;html=1;entryX=0;entryY=0.5;entryDx=0;entryDy=0;" parent="1" source="gnPVu5nhBKd851bWKXTs-7" target="gnPVu5nhBKd851bWKXTs-1" edge="1">
          <mxGeometry relative="1" as="geometry" />
        </mxCell>
        <mxCell id="gnPVu5nhBKd851bWKXTs-7" value="PWM to PPM" style="triangle;whiteSpace=wrap;html=1;fontStyle=1;fontSize=13;align=center;" parent="1" vertex="1">
          <mxGeometry x="160" y="210" width="140" height="100" as="geometry" />
        </mxCell>
        <mxCell id="gnPVu5nhBKd851bWKXTs-11" value="&lt;b&gt;&lt;font style=&quot;font-size: 18px;&quot;&gt;ESC&lt;/font&gt;&lt;/b&gt;" style="rounded=1;whiteSpace=wrap;html=1;" parent="1" vertex="1">
          <mxGeometry x="365" y="10" width="120" height="60" as="geometry" />
        </mxCell>
        <mxCell id="gnPVu5nhBKd851bWKXTs-12" value="&lt;font style=&quot;font-size: 18px;&quot;&gt;ESC&lt;/font&gt;" style="rounded=1;whiteSpace=wrap;html=1;fontStyle=1" parent="1" vertex="1">
          <mxGeometry x="490" y="10" width="120" height="60" as="geometry" />
        </mxCell>
        <mxCell id="gnPVu5nhBKd851bWKXTs-15" value="&lt;font style=&quot;font-size: 18px;&quot;&gt;ESC&lt;/font&gt;" style="rounded=1;whiteSpace=wrap;html=1;fontStyle=1" parent="1" vertex="1">
          <mxGeometry x="620" y="10" width="120" height="60" as="geometry" />
        </mxCell>
        <mxCell id="gnPVu5nhBKd851bWKXTs-16" value="&lt;font style=&quot;font-size: 18px;&quot;&gt;ESC&lt;/font&gt;" style="rounded=1;whiteSpace=wrap;html=1;fontStyle=1" parent="1" vertex="1">
          <mxGeometry x="750" y="10" width="120" height="60" as="geometry" />
        </mxCell>
        <mxCell id="gnPVu5nhBKd851bWKXTs-19" value="" style="endArrow=classic;html=1;rounded=0;entryX=0.5;entryY=1;entryDx=0;entryDy=0;" parent="1" target="gnPVu5nhBKd851bWKXTs-11" edge="1">
          <mxGeometry width="50" height="50" relative="1" as="geometry">
            <mxPoint x="550" y="220" as="sourcePoint" />
            <mxPoint x="510" y="170" as="targetPoint" />
            <Array as="points">
              <mxPoint x="550" y="190" />
              <mxPoint x="550" y="160" />
              <mxPoint x="425" y="160" />
            </Array>
          </mxGeometry>
        </mxCell>
        <mxCell id="gnPVu5nhBKd851bWKXTs-20" value="" style="endArrow=classic;html=1;rounded=0;entryX=0.5;entryY=1;entryDx=0;entryDy=0;" parent="1" target="gnPVu5nhBKd851bWKXTs-12" edge="1">
          <mxGeometry width="50" height="50" relative="1" as="geometry">
            <mxPoint x="460" y="160" as="sourcePoint" />
            <mxPoint x="450" y="270" as="targetPoint" />
            <Array as="points">
              <mxPoint x="500" y="160" />
              <mxPoint x="550" y="160" />
            </Array>
          </mxGeometry>
        </mxCell>
        <mxCell id="gnPVu5nhBKd851bWKXTs-21" value="" style="endArrow=classic;html=1;rounded=0;entryX=0.5;entryY=1;entryDx=0;entryDy=0;" parent="1" target="gnPVu5nhBKd851bWKXTs-15" edge="1">
          <mxGeometry width="50" height="50" relative="1" as="geometry">
            <mxPoint x="550" y="160" as="sourcePoint" />
            <mxPoint x="600" y="110" as="targetPoint" />
            <Array as="points">
              <mxPoint x="680" y="160" />
            </Array>
          </mxGeometry>
        </mxCell>
        <mxCell id="gnPVu5nhBKd851bWKXTs-22" value="" style="endArrow=classic;html=1;rounded=0;entryX=0.5;entryY=1;entryDx=0;entryDy=0;" parent="1" target="gnPVu5nhBKd851bWKXTs-16" edge="1">
          <mxGeometry width="50" height="50" relative="1" as="geometry">
            <mxPoint x="680" y="160" as="sourcePoint" />
            <mxPoint x="730" y="110" as="targetPoint" />
            <Array as="points">
              <mxPoint x="810" y="160" />
            </Array>
          </mxGeometry>
        </mxCell>
        <mxCell id="gnPVu5nhBKd851bWKXTs-23" value="MOTOR 1400KV" style="ellipse;whiteSpace=wrap;html=1;aspect=fixed;fontStyle=1" parent="1" vertex="1">
          <mxGeometry x="385" y="-120" width="80" height="80" as="geometry" />
        </mxCell>
        <mxCell id="gnPVu5nhBKd851bWKXTs-27" value="" style="endArrow=classic;html=1;rounded=0;exitX=0.5;exitY=0;exitDx=0;exitDy=0;" parent="1" source="gnPVu5nhBKd851bWKXTs-11" edge="1">
          <mxGeometry width="50" height="50" relative="1" as="geometry">
            <mxPoint x="375" y="10" as="sourcePoint" />
            <mxPoint x="425" y="-40" as="targetPoint" />
          </mxGeometry>
        </mxCell>
        <mxCell id="gnPVu5nhBKd851bWKXTs-29" value="" style="endArrow=classic;html=1;rounded=0;exitX=0.5;exitY=0;exitDx=0;exitDy=0;" parent="1" source="gnPVu5nhBKd851bWKXTs-12" edge="1">
          <mxGeometry width="50" height="50" relative="1" as="geometry">
            <mxPoint x="500" y="10" as="sourcePoint" />
            <mxPoint x="550" y="-40" as="targetPoint" />
          </mxGeometry>
        </mxCell>
        <mxCell id="gnPVu5nhBKd851bWKXTs-30" value="" style="endArrow=classic;html=1;rounded=0;entryX=0.5;entryY=1;entryDx=0;entryDy=0;exitX=0.5;exitY=0;exitDx=0;exitDy=0;" parent="1" source="gnPVu5nhBKd851bWKXTs-15" edge="1">
          <mxGeometry width="50" height="50" relative="1" as="geometry">
            <mxPoint x="400" y="50" as="sourcePoint" />
            <mxPoint x="680" y="-40" as="targetPoint" />
          </mxGeometry>
        </mxCell>
        <mxCell id="gnPVu5nhBKd851bWKXTs-31" value="" style="endArrow=classic;html=1;rounded=0;exitX=0.5;exitY=0;exitDx=0;exitDy=0;" parent="1" source="gnPVu5nhBKd851bWKXTs-16" edge="1">
          <mxGeometry width="50" height="50" relative="1" as="geometry">
            <mxPoint x="760" y="10" as="sourcePoint" />
            <mxPoint x="810" y="-40" as="targetPoint" />
          </mxGeometry>
        </mxCell>
        <mxCell id="gnPVu5nhBKd851bWKXTs-32" value="MOTOR 1400KV" style="ellipse;whiteSpace=wrap;html=1;aspect=fixed;fontStyle=1" parent="1" vertex="1">
          <mxGeometry x="510" y="-120" width="80" height="80" as="geometry" />
        </mxCell>
        <mxCell id="gnPVu5nhBKd851bWKXTs-33" value="MOTOR 1400KV" style="ellipse;whiteSpace=wrap;html=1;aspect=fixed;fontStyle=1" parent="1" vertex="1">
          <mxGeometry x="640" y="-120" width="80" height="80" as="geometry" />
        </mxCell>
        <mxCell id="gnPVu5nhBKd851bWKXTs-34" value="MOTOR 1400KV" style="ellipse;whiteSpace=wrap;html=1;aspect=fixed;fontStyle=1" parent="1" vertex="1">
          <mxGeometry x="770" y="-120" width="80" height="80" as="geometry" />
        </mxCell>
        <mxCell id="gnPVu5nhBKd851bWKXTs-35" value="&lt;h1&gt;MC6C&lt;/h1&gt;" style="strokeWidth=2;html=1;shape=mxgraph.flowchart.loop_limit;whiteSpace=wrap;fillColor=#dae8fc;strokeColor=#6c8ebf;" parent="1" vertex="1">
          <mxGeometry x="-30" y="495" width="180" height="110" as="geometry" />
        </mxCell>
        <mxCell id="gnPVu5nhBKd851bWKXTs-36" value="" style="shape=mxgraph.arrows2.wedgeArrowDashed2;html=1;bendable=0;startWidth=50;stepSize=15;rounded=0;" parent="1" edge="1">
          <mxGeometry width="100" height="100" relative="1" as="geometry">
            <mxPoint x="59.410000000000025" y="370" as="sourcePoint" />
            <mxPoint x="59.410000000000025" y="450" as="targetPoint" />
          </mxGeometry>
        </mxCell>
        <mxCell id="gnPVu5nhBKd851bWKXTs-42" value="" style="line;strokeWidth=2;html=1;direction=south;" parent="1" vertex="1">
          <mxGeometry x="-190" y="-150" width="60" height="800" as="geometry" />
        </mxCell>
        <mxCell id="gnPVu5nhBKd851bWKXTs-43" value="" style="line;strokeWidth=2;html=1;direction=west;" parent="1" vertex="1">
          <mxGeometry x="-160" y="-180" width="1120" height="60" as="geometry" />
        </mxCell>
        <mxCell id="gnPVu5nhBKd851bWKXTs-44" value="" style="line;strokeWidth=2;html=1;direction=west;" parent="1" vertex="1">
          <mxGeometry x="-160" y="630" width="1120" height="35" as="geometry" />
        </mxCell>
        <mxCell id="gnPVu5nhBKd851bWKXTs-45" value="" style="line;strokeWidth=2;html=1;direction=south;" parent="1" vertex="1">
          <mxGeometry x="930" y="-150" width="60" height="800" as="geometry" />
        </mxCell>
        <mxCell id="gnPVu5nhBKd851bWKXTs-101" style="edgeStyle=orthogonalEdgeStyle;rounded=0;orthogonalLoop=1;jettySize=auto;html=1;" parent="1" source="gnPVu5nhBKd851bWKXTs-47" target="gnPVu5nhBKd851bWKXTs-99" edge="1">
          <mxGeometry relative="1" as="geometry" />
        </mxCell>
        <mxCell id="gnPVu5nhBKd851bWKXTs-47" value="&lt;font style=&quot;font-size: 14px;&quot;&gt;&lt;b&gt;&lt;i&gt;STM32F103C8T6&lt;/i&gt;&lt;/b&gt;&lt;/font&gt;" style="shape=ext;double=1;rounded=0;whiteSpace=wrap;html=1;" parent="1" vertex="1">
          <mxGeometry x="463" y="881" width="210" height="160" as="geometry" />
        </mxCell>
        <mxCell id="gnPVu5nhBKd851bWKXTs-49" value="&lt;b&gt;MPU9250&lt;/b&gt;" style="ellipse;shape=doubleEllipse;whiteSpace=wrap;html=1;fillColor=#d5e8d4;strokeColor=#82b366;" parent="1" vertex="1">
          <mxGeometry x="153" y="856" width="100" height="60" as="geometry" />
        </mxCell>
        <mxCell id="gnPVu5nhBKd851bWKXTs-53" value="SCL1&lt;br&gt;" style="text;strokeColor=none;fillColor=none;spacingLeft=4;spacingRight=4;overflow=hidden;rotatable=0;points=[[0,0.5],[1,0.5]];portConstraint=eastwest;fontSize=12;whiteSpace=wrap;html=1;" parent="1" vertex="1">
          <mxGeometry x="353" y="881" width="40" height="30" as="geometry" />
        </mxCell>
        <mxCell id="gnPVu5nhBKd851bWKXTs-55" value="SDA1" style="text;strokeColor=none;fillColor=none;spacingLeft=4;spacingRight=4;overflow=hidden;rotatable=0;points=[[0,0.5],[1,0.5]];portConstraint=eastwest;fontSize=12;whiteSpace=wrap;html=1;" parent="1" vertex="1">
          <mxGeometry x="353" y="901" width="40" height="30" as="geometry" />
        </mxCell>
        <mxCell id="gnPVu5nhBKd851bWKXTs-56" value="PB8" style="text;strokeColor=none;fillColor=none;spacingLeft=4;spacingRight=4;overflow=hidden;rotatable=0;points=[[0,0.5],[1,0.5]];portConstraint=eastwest;fontSize=12;whiteSpace=wrap;html=1;" parent="1" vertex="1">
          <mxGeometry x="463" y="886" width="40" height="30" as="geometry" />
        </mxCell>
        <mxCell id="gnPVu5nhBKd851bWKXTs-57" value="PB9" style="text;strokeColor=none;fillColor=none;spacingLeft=4;spacingRight=4;overflow=hidden;rotatable=0;points=[[0,0.5],[1,0.5]];portConstraint=eastwest;fontSize=12;whiteSpace=wrap;html=1;" parent="1" vertex="1">
          <mxGeometry x="463" y="907" width="40" height="30" as="geometry" />
        </mxCell>
        <mxCell id="gnPVu5nhBKd851bWKXTs-59" value="" style="edgeStyle=segmentEdgeStyle;endArrow=classic;html=1;curved=0;rounded=0;endSize=8;startSize=8;entryX=0;entryY=0.5;entryDx=0;entryDy=0;" parent="1" target="gnPVu5nhBKd851bWKXTs-56" edge="1">
          <mxGeometry width="50" height="50" relative="1" as="geometry">
            <mxPoint x="253" y="881" as="sourcePoint" />
            <mxPoint x="303" y="831" as="targetPoint" />
            <Array as="points">
              <mxPoint x="293" y="881" />
              <mxPoint x="293" y="901" />
            </Array>
          </mxGeometry>
        </mxCell>
        <mxCell id="gnPVu5nhBKd851bWKXTs-60" value="" style="edgeStyle=segmentEdgeStyle;endArrow=classic;html=1;curved=0;rounded=0;endSize=8;startSize=8;entryX=0;entryY=0.5;entryDx=0;entryDy=0;" parent="1" source="gnPVu5nhBKd851bWKXTs-49" edge="1">
          <mxGeometry width="50" height="50" relative="1" as="geometry">
            <mxPoint x="253" y="901" as="sourcePoint" />
            <mxPoint x="463" y="921" as="targetPoint" />
            <Array as="points">
              <mxPoint x="283" y="901" />
              <mxPoint x="283" y="921" />
            </Array>
          </mxGeometry>
        </mxCell>
        <mxCell id="gnPVu5nhBKd851bWKXTs-61" value="&lt;b&gt;PPM&lt;/b&gt;" style="ellipse;shape=doubleEllipse;whiteSpace=wrap;html=1;fillColor=#d5e8d4;strokeColor=#82b366;" parent="1" vertex="1">
          <mxGeometry x="153" y="971" width="100" height="60" as="geometry" />
        </mxCell>
        <mxCell id="gnPVu5nhBKd851bWKXTs-62" value="" style="endArrow=classic;html=1;rounded=0;entryX=0.002;entryY=0.382;entryDx=0;entryDy=0;entryPerimeter=0;exitX=1;exitY=0.5;exitDx=0;exitDy=0;" parent="1" source="gnPVu5nhBKd851bWKXTs-61" target="gnPVu5nhBKd851bWKXTs-47" edge="1">
          <mxGeometry width="50" height="50" relative="1" as="geometry">
            <mxPoint x="333" y="1001" as="sourcePoint" />
            <mxPoint x="383" y="951" as="targetPoint" />
            <Array as="points">
              <mxPoint x="353" y="1001" />
              <mxPoint x="353" y="942" />
            </Array>
          </mxGeometry>
        </mxCell>
        <mxCell id="gnPVu5nhBKd851bWKXTs-83" value="GPIO_EXTI11" style="edgeLabel;html=1;align=center;verticalAlign=middle;resizable=0;points=[];" parent="gnPVu5nhBKd851bWKXTs-62" vertex="1" connectable="0">
          <mxGeometry x="-0.6904" y="-1" relative="1" as="geometry">
            <mxPoint x="6" y="-2" as="offset" />
          </mxGeometry>
        </mxCell>
        <mxCell id="gnPVu5nhBKd851bWKXTs-63" value="PB11" style="text;strokeColor=none;fillColor=none;spacingLeft=4;spacingRight=4;overflow=hidden;rotatable=0;points=[[0,0.5],[1,0.5]];portConstraint=eastwest;fontSize=12;whiteSpace=wrap;html=1;" parent="1" vertex="1">
          <mxGeometry x="463" y="928" width="40" height="30" as="geometry" />
        </mxCell>
        <mxCell id="gnPVu5nhBKd851bWKXTs-66" style="edgeStyle=orthogonalEdgeStyle;rounded=0;orthogonalLoop=1;jettySize=auto;html=1;entryX=0.092;entryY=0;entryDx=0;entryDy=0;entryPerimeter=0;" parent="1" target="gnPVu5nhBKd851bWKXTs-47" edge="1">
          <mxGeometry relative="1" as="geometry">
            <mxPoint x="458" y="806.0000000000005" as="sourcePoint" />
          </mxGeometry>
        </mxCell>
        <mxCell id="gnPVu5nhBKd851bWKXTs-65" value="Timer 2" style="ellipse;whiteSpace=wrap;html=1;aspect=fixed;fillColor=#d5e8d4;strokeColor=#82b366;" parent="1" vertex="1">
          <mxGeometry x="429" y="771" width="70" height="70" as="geometry" />
        </mxCell>
        <mxCell id="gnPVu5nhBKd851bWKXTs-67" value="&lt;font style=&quot;font-size: 14px;&quot;&gt;&lt;b&gt;RX_MC7R&lt;/b&gt;&lt;/font&gt;" style="rounded=1;whiteSpace=wrap;html=1;direction=south;" parent="1" vertex="1">
          <mxGeometry x="-127" y="880" width="120" height="242" as="geometry" />
        </mxCell>
        <mxCell id="gnPVu5nhBKd851bWKXTs-68" value="" style="endArrow=classic;html=1;rounded=0;exitX=0.126;exitY=-0.021;exitDx=0;exitDy=0;exitPerimeter=0;entryX=0.119;entryY=0.176;entryDx=0;entryDy=0;entryPerimeter=0;" parent="1" source="gnPVu5nhBKd851bWKXTs-67" target="gnPVu5nhBKd851bWKXTs-61" edge="1">
          <mxGeometry width="50" height="50" relative="1" as="geometry">
            <mxPoint x="93" y="1011" as="sourcePoint" />
            <mxPoint x="163" y="981" as="targetPoint" />
            <Array as="points">
              <mxPoint x="63" y="911" />
              <mxPoint x="63" y="981" />
              <mxPoint x="143" y="981" />
            </Array>
          </mxGeometry>
        </mxCell>
        <mxCell id="gnPVu5nhBKd851bWKXTs-75" value="PWM" style="edgeLabel;html=1;align=center;verticalAlign=middle;resizable=0;points=[];" parent="gnPVu5nhBKd851bWKXTs-68" vertex="1" connectable="0">
          <mxGeometry x="-0.1473" y="1" relative="1" as="geometry">
            <mxPoint as="offset" />
          </mxGeometry>
        </mxCell>
        <mxCell id="gnPVu5nhBKd851bWKXTs-69" value="" style="endArrow=classic;html=1;rounded=0;exitX=0.25;exitY=0;exitDx=0;exitDy=0;entryX=0.008;entryY=0.394;entryDx=0;entryDy=0;entryPerimeter=0;" parent="1" source="gnPVu5nhBKd851bWKXTs-67" target="gnPVu5nhBKd851bWKXTs-61" edge="1">
          <mxGeometry width="50" height="50" relative="1" as="geometry">
            <mxPoint x="6" y="920" as="sourcePoint" />
            <mxPoint x="173" y="993" as="targetPoint" />
            <Array as="points">
              <mxPoint x="33" y="941" />
              <mxPoint x="33" y="995" />
            </Array>
          </mxGeometry>
        </mxCell>
        <mxCell id="gnPVu5nhBKd851bWKXTs-71" value="PWM" style="edgeLabel;html=1;align=center;verticalAlign=middle;resizable=0;points=[];" parent="gnPVu5nhBKd851bWKXTs-69" vertex="1" connectable="0">
          <mxGeometry x="-0.375" relative="1" as="geometry">
            <mxPoint as="offset" />
          </mxGeometry>
        </mxCell>
        <mxCell id="gnPVu5nhBKd851bWKXTs-73" value="" style="endArrow=classic;html=1;rounded=0;entryX=0.037;entryY=0.685;entryDx=0;entryDy=0;entryPerimeter=0;exitX=0.456;exitY=-0.001;exitDx=0;exitDy=0;exitPerimeter=0;" parent="1" source="gnPVu5nhBKd851bWKXTs-67" target="gnPVu5nhBKd851bWKXTs-61" edge="1">
          <mxGeometry width="50" height="50" relative="1" as="geometry">
            <mxPoint x="73" y="1001" as="sourcePoint" />
            <mxPoint x="123" y="951" as="targetPoint" />
            <Array as="points">
              <mxPoint x="13" y="991" />
              <mxPoint x="13" y="1011" />
            </Array>
          </mxGeometry>
        </mxCell>
        <mxCell id="gnPVu5nhBKd851bWKXTs-74" value="PWM" style="edgeLabel;html=1;align=center;verticalAlign=middle;resizable=0;points=[];" parent="gnPVu5nhBKd851bWKXTs-73" vertex="1" connectable="0">
          <mxGeometry x="-0.6715" y="-1" relative="1" as="geometry">
            <mxPoint as="offset" />
          </mxGeometry>
        </mxCell>
        <mxCell id="gnPVu5nhBKd851bWKXTs-76" value="" style="endArrow=classic;html=1;rounded=0;exitX=0.126;exitY=-0.021;exitDx=0;exitDy=0;exitPerimeter=0;entryX=0.118;entryY=0.846;entryDx=0;entryDy=0;entryPerimeter=0;" parent="1" target="gnPVu5nhBKd851bWKXTs-61" edge="1">
          <mxGeometry width="50" height="50" relative="1" as="geometry">
            <mxPoint x="-7" y="1031" as="sourcePoint" />
            <mxPoint x="162" y="1103" as="targetPoint" />
            <Array as="points">
              <mxPoint x="113" y="1031" />
              <mxPoint x="143" y="1031" />
            </Array>
          </mxGeometry>
        </mxCell>
        <mxCell id="gnPVu5nhBKd851bWKXTs-77" value="PWM" style="edgeLabel;html=1;align=center;verticalAlign=middle;resizable=0;points=[];" parent="gnPVu5nhBKd851bWKXTs-76" vertex="1" connectable="0">
          <mxGeometry x="-0.1473" y="1" relative="1" as="geometry">
            <mxPoint x="-23" as="offset" />
          </mxGeometry>
        </mxCell>
        <mxCell id="gnPVu5nhBKd851bWKXTs-78" value="CH1" style="text;html=1;strokeColor=none;fillColor=none;align=center;verticalAlign=middle;whiteSpace=wrap;rounded=0;" parent="1" vertex="1">
          <mxGeometry x="-52" y="896" width="60" height="30" as="geometry" />
        </mxCell>
        <mxCell id="gnPVu5nhBKd851bWKXTs-79" value="CH2" style="text;html=1;strokeColor=none;fillColor=none;align=center;verticalAlign=middle;whiteSpace=wrap;rounded=0;" parent="1" vertex="1">
          <mxGeometry x="-51" y="926" width="60" height="30" as="geometry" />
        </mxCell>
        <mxCell id="gnPVu5nhBKd851bWKXTs-80" value="CH3" style="text;html=1;strokeColor=none;fillColor=none;align=center;verticalAlign=middle;whiteSpace=wrap;rounded=0;" parent="1" vertex="1">
          <mxGeometry x="-51" y="976" width="60" height="30" as="geometry" />
        </mxCell>
        <mxCell id="gnPVu5nhBKd851bWKXTs-81" value="CH4" style="text;html=1;strokeColor=none;fillColor=none;align=center;verticalAlign=middle;whiteSpace=wrap;rounded=0;" parent="1" vertex="1">
          <mxGeometry x="-51" y="1018" width="60" height="25" as="geometry" />
        </mxCell>
        <mxCell id="gnPVu5nhBKd851bWKXTs-109" style="edgeStyle=orthogonalEdgeStyle;rounded=0;orthogonalLoop=1;jettySize=auto;html=1;entryX=0;entryY=0.5;entryDx=0;entryDy=0;" parent="1" source="gnPVu5nhBKd851bWKXTs-84" target="gnPVu5nhBKd851bWKXTs-103" edge="1">
          <mxGeometry relative="1" as="geometry" />
        </mxCell>
        <mxCell id="gnPVu5nhBKd851bWKXTs-84" value="ES1" style="ellipse;whiteSpace=wrap;html=1;aspect=fixed;fillColor=#dae8fc;strokeColor=#6c8ebf;" parent="1" vertex="1">
          <mxGeometry x="789" y="881" width="80" height="80" as="geometry" />
        </mxCell>
        <mxCell id="gnPVu5nhBKd851bWKXTs-110" style="edgeStyle=orthogonalEdgeStyle;rounded=0;orthogonalLoop=1;jettySize=auto;html=1;entryX=0;entryY=0.5;entryDx=0;entryDy=0;" parent="1" source="gnPVu5nhBKd851bWKXTs-85" target="gnPVu5nhBKd851bWKXTs-104" edge="1">
          <mxGeometry relative="1" as="geometry" />
        </mxCell>
        <mxCell id="gnPVu5nhBKd851bWKXTs-85" value="ESC2" style="ellipse;whiteSpace=wrap;html=1;aspect=fixed;fillColor=#dae8fc;strokeColor=#6c8ebf;" parent="1" vertex="1">
          <mxGeometry x="789" y="971" width="80" height="80" as="geometry" />
        </mxCell>
        <mxCell id="gnPVu5nhBKd851bWKXTs-111" style="edgeStyle=orthogonalEdgeStyle;rounded=0;orthogonalLoop=1;jettySize=auto;html=1;entryX=0;entryY=0.5;entryDx=0;entryDy=0;" parent="1" source="gnPVu5nhBKd851bWKXTs-86" target="gnPVu5nhBKd851bWKXTs-105" edge="1">
          <mxGeometry relative="1" as="geometry" />
        </mxCell>
        <mxCell id="gnPVu5nhBKd851bWKXTs-86" value="ESC3" style="ellipse;whiteSpace=wrap;html=1;aspect=fixed;fillColor=#dae8fc;strokeColor=#6c8ebf;" parent="1" vertex="1">
          <mxGeometry x="789" y="1060" width="80" height="80" as="geometry" />
        </mxCell>
        <mxCell id="gnPVu5nhBKd851bWKXTs-112" style="edgeStyle=orthogonalEdgeStyle;rounded=0;orthogonalLoop=1;jettySize=auto;html=1;entryX=0;entryY=0.5;entryDx=0;entryDy=0;" parent="1" source="gnPVu5nhBKd851bWKXTs-87" target="gnPVu5nhBKd851bWKXTs-106" edge="1">
          <mxGeometry relative="1" as="geometry" />
        </mxCell>
        <mxCell id="gnPVu5nhBKd851bWKXTs-87" value="ESC4" style="ellipse;whiteSpace=wrap;html=1;aspect=fixed;fillColor=#dae8fc;strokeColor=#6c8ebf;" parent="1" vertex="1">
          <mxGeometry x="789" y="1150" width="80" height="80" as="geometry" />
        </mxCell>
        <mxCell id="gnPVu5nhBKd851bWKXTs-90" value="" style="endArrow=classic;html=1;rounded=0;entryX=0;entryY=0.5;entryDx=0;entryDy=0;exitX=1.001;exitY=0.164;exitDx=0;exitDy=0;exitPerimeter=0;" parent="1" source="gnPVu5nhBKd851bWKXTs-47" target="gnPVu5nhBKd851bWKXTs-84" edge="1">
          <mxGeometry width="50" height="50" relative="1" as="geometry">
            <mxPoint x="679" y="910" as="sourcePoint" />
            <mxPoint x="729" y="940" as="targetPoint" />
            <Array as="points">
              <mxPoint x="769" y="907" />
              <mxPoint x="769" y="921" />
            </Array>
          </mxGeometry>
        </mxCell>
        <mxCell id="gnPVu5nhBKd851bWKXTs-91" value="" style="endArrow=classic;html=1;rounded=0;entryX=0;entryY=0.5;entryDx=0;entryDy=0;exitX=1;exitY=0.25;exitDx=0;exitDy=0;" parent="1" source="gnPVu5nhBKd851bWKXTs-47" target="gnPVu5nhBKd851bWKXTs-85" edge="1">
          <mxGeometry width="50" height="50" relative="1" as="geometry">
            <mxPoint x="599" y="970" as="sourcePoint" />
            <mxPoint x="649" y="920" as="targetPoint" />
            <Array as="points">
              <mxPoint x="749" y="921" />
              <mxPoint x="749" y="1011" />
            </Array>
          </mxGeometry>
        </mxCell>
        <mxCell id="gnPVu5nhBKd851bWKXTs-93" value="" style="endArrow=classic;html=1;rounded=0;entryX=0;entryY=0.5;entryDx=0;entryDy=0;exitX=0.998;exitY=0.348;exitDx=0;exitDy=0;exitPerimeter=0;" parent="1" source="gnPVu5nhBKd851bWKXTs-47" target="gnPVu5nhBKd851bWKXTs-86" edge="1">
          <mxGeometry width="50" height="50" relative="1" as="geometry">
            <mxPoint x="579" y="1010" as="sourcePoint" />
            <mxPoint x="629" y="960" as="targetPoint" />
            <Array as="points">
              <mxPoint x="729" y="937" />
              <mxPoint x="729" y="1020" />
              <mxPoint x="729" y="1100" />
            </Array>
          </mxGeometry>
        </mxCell>
        <mxCell id="gnPVu5nhBKd851bWKXTs-94" value="" style="endArrow=classic;html=1;rounded=0;exitX=1.001;exitY=0.43;exitDx=0;exitDy=0;exitPerimeter=0;entryX=0.011;entryY=0.545;entryDx=0;entryDy=0;entryPerimeter=0;" parent="1" source="gnPVu5nhBKd851bWKXTs-47" target="gnPVu5nhBKd851bWKXTs-87" edge="1">
          <mxGeometry width="50" height="50" relative="1" as="geometry">
            <mxPoint x="679" y="950" as="sourcePoint" />
            <mxPoint x="709" y="953" as="targetPoint" />
            <Array as="points">
              <mxPoint x="709" y="950" />
              <mxPoint x="709" y="1070" />
              <mxPoint x="709" y="1194" />
            </Array>
          </mxGeometry>
        </mxCell>
        <mxCell id="gnPVu5nhBKd851bWKXTs-95" value="PA6" style="text;strokeColor=none;fillColor=none;spacingLeft=4;spacingRight=4;overflow=hidden;rotatable=0;points=[[0,0.5],[1,0.5]];portConstraint=eastwest;fontSize=12;whiteSpace=wrap;html=1;" parent="1" vertex="1">
          <mxGeometry x="640" y="894" width="40" height="30" as="geometry" />
        </mxCell>
        <mxCell id="gnPVu5nhBKd851bWKXTs-96" value="PA7" style="text;strokeColor=none;fillColor=none;spacingLeft=4;spacingRight=4;overflow=hidden;rotatable=0;points=[[0,0.5],[1,0.5]];portConstraint=eastwest;fontSize=12;whiteSpace=wrap;html=1;" parent="1" vertex="1">
          <mxGeometry x="640" y="907" width="40" height="30" as="geometry" />
        </mxCell>
        <mxCell id="gnPVu5nhBKd851bWKXTs-97" value="PB0" style="text;strokeColor=none;fillColor=none;spacingLeft=4;spacingRight=4;overflow=hidden;rotatable=0;points=[[0,0.5],[1,0.5]];portConstraint=eastwest;fontSize=12;whiteSpace=wrap;html=1;" parent="1" vertex="1">
          <mxGeometry x="640" y="922" width="40" height="30" as="geometry" />
        </mxCell>
        <mxCell id="gnPVu5nhBKd851bWKXTs-98" value="PB1" style="text;strokeColor=none;fillColor=none;spacingLeft=4;spacingRight=4;overflow=hidden;rotatable=0;points=[[0,0.5],[1,0.5]];portConstraint=eastwest;fontSize=12;whiteSpace=wrap;html=1;" parent="1" vertex="1">
          <mxGeometry x="640" y="936" width="40" height="30" as="geometry" />
        </mxCell>
        <mxCell id="gnPVu5nhBKd851bWKXTs-99" value="LED" style="ellipse;whiteSpace=wrap;html=1;fillColor=#f8cecc;strokeColor=#b85450;" parent="1" vertex="1">
          <mxGeometry x="531" y="1160" width="76" height="38" as="geometry" />
        </mxCell>
        <mxCell id="gnPVu5nhBKd851bWKXTs-102" value="PB2" style="text;strokeColor=none;fillColor=none;spacingLeft=4;spacingRight=4;overflow=hidden;rotatable=0;points=[[0,0.5],[1,0.5]];portConstraint=eastwest;fontSize=12;whiteSpace=wrap;html=1;" parent="1" vertex="1">
          <mxGeometry x="551" y="1018" width="40" height="26" as="geometry" />
        </mxCell>
        <mxCell id="gnPVu5nhBKd851bWKXTs-103" value="MOTOR 1" style="rounded=1;whiteSpace=wrap;html=1;" parent="1" vertex="1">
          <mxGeometry x="919" y="891" width="120" height="60" as="geometry" />
        </mxCell>
        <mxCell id="gnPVu5nhBKd851bWKXTs-104" value="MOTOR 2" style="rounded=1;whiteSpace=wrap;html=1;" parent="1" vertex="1">
          <mxGeometry x="919" y="981" width="120" height="60" as="geometry" />
        </mxCell>
        <mxCell id="gnPVu5nhBKd851bWKXTs-105" value="MOTOR 3" style="rounded=1;whiteSpace=wrap;html=1;" parent="1" vertex="1">
          <mxGeometry x="919" y="1070" width="120" height="60" as="geometry" />
        </mxCell>
        <mxCell id="gnPVu5nhBKd851bWKXTs-106" value="MOTOR 4" style="rounded=1;whiteSpace=wrap;html=1;" parent="1" vertex="1">
          <mxGeometry x="919" y="1160" width="120" height="60" as="geometry" />
        </mxCell>
        <mxCell id="gnPVu5nhBKd851bWKXTs-113" value="Text" style="text;html=1;strokeColor=none;fillColor=none;align=center;verticalAlign=middle;whiteSpace=wrap;rounded=0;" parent="1" vertex="1">
          <mxGeometry x="490" y="120" width="60" height="30" as="geometry" />
        </mxCell>
        <mxCell id="gnPVu5nhBKd851bWKXTs-114" value="&lt;h1&gt;MÔ TẢ SƠ LƯỢC&lt;/h1&gt;" style="text;html=1;strokeColor=none;fillColor=none;align=center;verticalAlign=middle;whiteSpace=wrap;rounded=0;" parent="1" vertex="1">
          <mxGeometry x="-120" y="-120" width="210" height="30" as="geometry" />
        </mxCell>
        <mxCell id="gnPVu5nhBKd851bWKXTs-122" style="edgeStyle=orthogonalEdgeStyle;rounded=0;orthogonalLoop=1;jettySize=auto;html=1;entryX=0;entryY=0.5;entryDx=0;entryDy=0;" parent="1" source="gnPVu5nhBKd851bWKXTs-115" target="gnPVu5nhBKd851bWKXTs-118" edge="1">
          <mxGeometry relative="1" as="geometry" />
        </mxCell>
        <mxCell id="gnPVu5nhBKd851bWKXTs-115" value="" style="verticalLabelPosition=bottom;verticalAlign=top;html=1;shape=mxgraph.flowchart.on-page_reference;" parent="1" vertex="1">
          <mxGeometry x="50" y="1399" width="70" height="60" as="geometry" />
        </mxCell>
        <mxCell id="gnPVu5nhBKd851bWKXTs-116" value="&lt;font style=&quot;font-size: 15px;&quot;&gt;+&lt;/font&gt;" style="text;strokeColor=none;fillColor=none;spacingLeft=4;spacingRight=4;overflow=hidden;rotatable=0;points=[[0,0.5],[1,0.5]];portConstraint=eastwest;fontSize=12;whiteSpace=wrap;html=1;" parent="1" vertex="1">
          <mxGeometry x="50" y="1414" width="40" height="30" as="geometry" />
        </mxCell>
        <mxCell id="gnPVu5nhBKd851bWKXTs-117" value="&lt;font style=&quot;font-size: 16px;&quot;&gt;-&lt;/font&gt;" style="text;strokeColor=none;fillColor=none;spacingLeft=4;spacingRight=4;overflow=hidden;rotatable=0;points=[[0,0.5],[1,0.5]];portConstraint=eastwest;fontSize=12;whiteSpace=wrap;html=1;" parent="1" vertex="1">
          <mxGeometry x="75" y="1432" width="40" height="30" as="geometry" />
        </mxCell>
        <mxCell id="gnPVu5nhBKd851bWKXTs-126" style="edgeStyle=orthogonalEdgeStyle;rounded=0;orthogonalLoop=1;jettySize=auto;html=1;entryX=0;entryY=0.5;entryDx=0;entryDy=0;" parent="1" source="gnPVu5nhBKd851bWKXTs-118" target="gnPVu5nhBKd851bWKXTs-124" edge="1">
          <mxGeometry relative="1" as="geometry" />
        </mxCell>
        <mxCell id="gnPVu5nhBKd851bWKXTs-118" value="Angle controller" style="rounded=1;whiteSpace=wrap;html=1;" parent="1" vertex="1">
          <mxGeometry x="180" y="1399" width="120" height="60" as="geometry" />
        </mxCell>
        <mxCell id="gnPVu5nhBKd851bWKXTs-128" style="edgeStyle=orthogonalEdgeStyle;rounded=0;orthogonalLoop=1;jettySize=auto;html=1;entryX=0;entryY=0.5;entryDx=0;entryDy=0;" parent="1" source="gnPVu5nhBKd851bWKXTs-123" target="gnPVu5nhBKd851bWKXTs-127" edge="1">
          <mxGeometry relative="1" as="geometry" />
        </mxCell>
        <mxCell id="gnPVu5nhBKd851bWKXTs-123" value="" style="verticalLabelPosition=bottom;verticalAlign=top;html=1;shape=mxgraph.flowchart.on-page_reference;" parent="1" vertex="1">
          <mxGeometry x="359" y="1399" width="70" height="60" as="geometry" />
        </mxCell>
        <mxCell id="gnPVu5nhBKd851bWKXTs-124" value="&lt;font style=&quot;font-size: 15px;&quot;&gt;+&lt;/font&gt;" style="text;strokeColor=none;fillColor=none;spacingLeft=4;spacingRight=4;overflow=hidden;rotatable=0;points=[[0,0.5],[1,0.5]];portConstraint=eastwest;fontSize=12;whiteSpace=wrap;html=1;" parent="1" vertex="1">
          <mxGeometry x="359" y="1414" width="40" height="30" as="geometry" />
        </mxCell>
        <mxCell id="gnPVu5nhBKd851bWKXTs-125" value="&lt;font style=&quot;font-size: 16px;&quot;&gt;-&lt;/font&gt;" style="text;strokeColor=none;fillColor=none;spacingLeft=4;spacingRight=4;overflow=hidden;rotatable=0;points=[[0,0.5],[1,0.5]];portConstraint=eastwest;fontSize=12;whiteSpace=wrap;html=1;" parent="1" vertex="1">
          <mxGeometry x="384" y="1432" width="40" height="30" as="geometry" />
        </mxCell>
        <mxCell id="gnPVu5nhBKd851bWKXTs-129" style="edgeStyle=orthogonalEdgeStyle;rounded=0;orthogonalLoop=1;jettySize=auto;html=1;entryX=0;entryY=0.5;entryDx=0;entryDy=0;" parent="1" source="gnPVu5nhBKd851bWKXTs-127" target="gnPVu5nhBKd851bWKXTs-141" edge="1">
          <mxGeometry relative="1" as="geometry">
            <mxPoint x="640" y="1429.0000000000005" as="targetPoint" />
          </mxGeometry>
        </mxCell>
        <mxCell id="gnPVu5nhBKd851bWKXTs-127" value="Rate controller" style="rounded=1;whiteSpace=wrap;html=1;" parent="1" vertex="1">
          <mxGeometry x="480" y="1399" width="120" height="60" as="geometry" />
        </mxCell>
        <mxCell id="gnPVu5nhBKd851bWKXTs-130" value="" style="endArrow=classic;html=1;rounded=0;entryX=0;entryY=0.5;entryDx=0;entryDy=0;" parent="1" target="gnPVu5nhBKd851bWKXTs-116" edge="1">
          <mxGeometry width="50" height="50" relative="1" as="geometry">
            <mxPoint x="-30" y="1429" as="sourcePoint" />
            <mxPoint x="250" y="1329" as="targetPoint" />
          </mxGeometry>
        </mxCell>
        <mxCell id="gnPVu5nhBKd851bWKXTs-131" value="setpoint" style="text;html=1;strokeColor=none;fillColor=none;align=center;verticalAlign=middle;whiteSpace=wrap;rounded=0;" parent="1" vertex="1">
          <mxGeometry x="-45" y="1402" width="60" height="30" as="geometry" />
        </mxCell>
        <mxCell id="gnPVu5nhBKd851bWKXTs-132" value="Kalman Filter" style="rounded=1;whiteSpace=wrap;html=1;" parent="1" vertex="1">
          <mxGeometry x="180" y="1499" width="120" height="60" as="geometry" />
        </mxCell>
        <mxCell id="gnPVu5nhBKd851bWKXTs-136" style="edgeStyle=orthogonalEdgeStyle;rounded=0;orthogonalLoop=1;jettySize=auto;html=1;entryX=0.213;entryY=0.926;entryDx=0;entryDy=0;entryPerimeter=0;" parent="1" edge="1">
          <mxGeometry relative="1" as="geometry">
            <mxPoint x="392.52" y="1459.7799999999997" as="targetPoint" />
            <mxPoint x="480" y="1509" as="sourcePoint" />
            <Array as="points">
              <mxPoint x="392" y="1509" />
            </Array>
          </mxGeometry>
        </mxCell>
        <mxCell id="gnPVu5nhBKd851bWKXTs-133" value="Gyroscope" style="rounded=1;whiteSpace=wrap;html=1;" parent="1" vertex="1">
          <mxGeometry x="480" y="1479" width="120" height="60" as="geometry" />
        </mxCell>
        <mxCell id="gnPVu5nhBKd851bWKXTs-138" style="edgeStyle=orthogonalEdgeStyle;rounded=0;orthogonalLoop=1;jettySize=auto;html=1;entryX=1.014;entryY=0.805;entryDx=0;entryDy=0;entryPerimeter=0;" parent="1" source="gnPVu5nhBKd851bWKXTs-134" target="gnPVu5nhBKd851bWKXTs-132" edge="1">
          <mxGeometry relative="1" as="geometry" />
        </mxCell>
        <mxCell id="gnPVu5nhBKd851bWKXTs-134" value="Accelerometer" style="rounded=1;whiteSpace=wrap;html=1;" parent="1" vertex="1">
          <mxGeometry x="480" y="1559" width="120" height="60" as="geometry" />
        </mxCell>
        <mxCell id="gnPVu5nhBKd851bWKXTs-137" value="" style="endArrow=classic;html=1;rounded=0;entryX=1;entryY=0.5;entryDx=0;entryDy=0;" parent="1" target="gnPVu5nhBKd851bWKXTs-132" edge="1">
          <mxGeometry width="50" height="50" relative="1" as="geometry">
            <mxPoint x="393" y="1509" as="sourcePoint" />
            <mxPoint x="303.48" y="1532.8400000000001" as="targetPoint" />
            <Array as="points">
              <mxPoint x="393" y="1529" />
              <mxPoint x="350" y="1529" />
            </Array>
          </mxGeometry>
        </mxCell>
        <mxCell id="gnPVu5nhBKd851bWKXTs-139" value="" style="endArrow=classic;html=1;rounded=0;entryX=0.255;entryY=0.938;entryDx=0;entryDy=0;entryPerimeter=0;exitX=0;exitY=0.5;exitDx=0;exitDy=0;" parent="1" source="gnPVu5nhBKd851bWKXTs-132" target="gnPVu5nhBKd851bWKXTs-117" edge="1">
          <mxGeometry width="50" height="50" relative="1" as="geometry">
            <mxPoint x="140" y="1579" as="sourcePoint" />
            <mxPoint x="190" y="1529" as="targetPoint" />
            <Array as="points">
              <mxPoint x="85" y="1529" />
            </Array>
          </mxGeometry>
        </mxCell>
        <mxCell id="gnPVu5nhBKd851bWKXTs-140" value="Kalman&lt;br&gt;Angle" style="text;html=1;strokeColor=none;fillColor=none;align=center;verticalAlign=middle;whiteSpace=wrap;rounded=0;" parent="1" vertex="1">
          <mxGeometry x="93" y="1499" width="60" height="30" as="geometry" />
        </mxCell>
        <mxCell id="gnPVu5nhBKd851bWKXTs-142" style="edgeStyle=orthogonalEdgeStyle;rounded=0;orthogonalLoop=1;jettySize=auto;html=1;entryX=1;entryY=0.5;entryDx=0;entryDy=0;" parent="1" source="gnPVu5nhBKd851bWKXTs-141" target="gnPVu5nhBKd851bWKXTs-134" edge="1">
          <mxGeometry relative="1" as="geometry">
            <mxPoint x="810" y="1610.7391304347825" as="targetPoint" />
            <Array as="points">
              <mxPoint x="810" y="1429" />
              <mxPoint x="810" y="1589" />
            </Array>
          </mxGeometry>
        </mxCell>
        <mxCell id="gnPVu5nhBKd851bWKXTs-143" style="edgeStyle=orthogonalEdgeStyle;rounded=0;orthogonalLoop=1;jettySize=auto;html=1;entryX=1;entryY=0.5;entryDx=0;entryDy=0;" parent="1" source="gnPVu5nhBKd851bWKXTs-141" target="gnPVu5nhBKd851bWKXTs-133" edge="1">
          <mxGeometry relative="1" as="geometry">
            <mxPoint x="718.5" y="1519" as="targetPoint" />
            <Array as="points">
              <mxPoint x="719" y="1509" />
            </Array>
          </mxGeometry>
        </mxCell>
        <mxCell id="gnPVu5nhBKd851bWKXTs-141" value="Motor&lt;br&gt;power" style="whiteSpace=wrap;html=1;aspect=fixed;" parent="1" vertex="1">
          <mxGeometry x="680" y="1390.5" width="77" height="77" as="geometry" />
        </mxCell>
        <mxCell id="gnPVu5nhBKd851bWKXTs-144" value="quadcopter&lt;br&gt;rotation rate" style="text;html=1;strokeColor=none;fillColor=none;align=center;verticalAlign=middle;whiteSpace=wrap;rounded=0;" parent="1" vertex="1">
          <mxGeometry x="630" y="1479" width="70" height="30" as="geometry" />
        </mxCell>
        <mxCell id="gnPVu5nhBKd851bWKXTs-145" value="quadcopter&lt;br&gt;angle" style="text;html=1;strokeColor=none;fillColor=none;align=center;verticalAlign=middle;whiteSpace=wrap;rounded=0;" parent="1" vertex="1">
          <mxGeometry x="640" y="1559" width="70" height="30" as="geometry" />
        </mxCell>
        <mxCell id="gnPVu5nhBKd851bWKXTs-146" value="measured&lt;br&gt;angle" style="text;html=1;strokeColor=none;fillColor=none;align=center;verticalAlign=middle;whiteSpace=wrap;rounded=0;" parent="1" vertex="1">
          <mxGeometry x="310" y="1549" width="70" height="30" as="geometry" />
        </mxCell>
        <mxCell id="gnPVu5nhBKd851bWKXTs-147" value="angle&lt;br&gt;error" style="text;html=1;strokeColor=none;fillColor=none;align=center;verticalAlign=middle;whiteSpace=wrap;rounded=0;" parent="1" vertex="1">
          <mxGeometry x="115" y="1399" width="60" height="30" as="geometry" />
        </mxCell>
        <mxCell id="gnPVu5nhBKd851bWKXTs-149" value="desired&lt;br&gt;rotation rate" style="text;html=1;strokeColor=none;fillColor=none;align=center;verticalAlign=middle;whiteSpace=wrap;rounded=0;" parent="1" vertex="1">
          <mxGeometry x="300" y="1390.5" width="60" height="30" as="geometry" />
        </mxCell>
        <mxCell id="gnPVu5nhBKd851bWKXTs-150" value="rotation rate&lt;br&gt;error" style="text;html=1;strokeColor=none;fillColor=none;align=center;verticalAlign=middle;whiteSpace=wrap;rounded=0;" parent="1" vertex="1">
          <mxGeometry x="420" y="1384" width="60" height="30" as="geometry" />
        </mxCell>
        <mxCell id="gnPVu5nhBKd851bWKXTs-151" value="motor power command" style="text;html=1;strokeColor=none;fillColor=none;align=center;verticalAlign=middle;whiteSpace=wrap;rounded=0;" parent="1" vertex="1">
          <mxGeometry x="600" y="1390.5" width="60" height="30" as="geometry" />
        </mxCell>
        <mxCell id="gnPVu5nhBKd851bWKXTs-152" value="&lt;span style=&quot;color: rgb(0, 0, 0); font-family: Helvetica; font-size: 12px; font-style: normal; font-variant-ligatures: normal; font-variant-caps: normal; font-weight: 400; letter-spacing: normal; orphans: 2; text-align: center; text-indent: 0px; text-transform: none; widows: 2; word-spacing: 0px; -webkit-text-stroke-width: 0px; background-color: rgb(251, 251, 251); text-decoration-thickness: initial; text-decoration-style: initial; text-decoration-color: initial; float: none; display: inline !important;&quot;&gt;measured&lt;/span&gt;&lt;br style=&quot;border-color: var(--border-color); color: rgb(0, 0, 0); font-family: Helvetica; font-size: 12px; font-style: normal; font-variant-ligatures: normal; font-variant-caps: normal; font-weight: 400; letter-spacing: normal; orphans: 2; text-align: center; text-indent: 0px; text-transform: none; widows: 2; word-spacing: 0px; -webkit-text-stroke-width: 0px; background-color: rgb(251, 251, 251); text-decoration-thickness: initial; text-decoration-style: initial; text-decoration-color: initial;&quot;&gt;&lt;div style=&quot;text-align: center;&quot;&gt;&lt;span style=&quot;background-color: initial;&quot;&gt;rotation rate&lt;/span&gt;&lt;/div&gt;" style="text;whiteSpace=wrap;html=1;" parent="1" vertex="1">
          <mxGeometry x="409" y="1469" width="90" height="50" as="geometry" />
        </mxCell>
        <mxCell id="gnPVu5nhBKd851bWKXTs-153" value="&lt;font style=&quot;font-size: 20px;&quot;&gt;&lt;b&gt;&lt;i&gt;Phần Cứng&lt;/i&gt;&lt;/b&gt;&lt;/font&gt;" style="text;html=1;strokeColor=none;fillColor=none;align=center;verticalAlign=middle;whiteSpace=wrap;rounded=0;" parent="1" vertex="1">
          <mxGeometry x="-100" y="771" width="200" height="30" as="geometry" />
        </mxCell>
        <mxCell id="gnPVu5nhBKd851bWKXTs-154" value="&lt;span style=&quot;font-size: 20px;&quot;&gt;&lt;b&gt;&lt;i&gt;Giải thuật PID&lt;/i&gt;&lt;/b&gt;&lt;/span&gt;" style="text;html=1;strokeColor=none;fillColor=none;align=center;verticalAlign=middle;whiteSpace=wrap;rounded=0;" parent="1" vertex="1">
          <mxGeometry x="-70" y="1320" width="200" height="30" as="geometry" />
        </mxCell>
      </root>
    </mxGraphModel>
  </diagram>
</mxfile>
